<svg width="98" height="21" viewBox="0 0 98 21" fill="none" xmlns="http://www.w3.org/2000/svg">
<path opacity="0.4" d="M0.00268555 11.0336L11.2967 16.0182V9.96643L0.00268555 4.98462V11.0336Z" fill="#35C0C8"/>
<path d="M17.4722 14.8612L18.6932 13.9597C19.3331 15.1701 20.7721 15.9761 22.267 15.9761C24.1111 15.9761 25.62 14.9763 25.62 13.5806C25.62 11.9912 23.6026 11.2273 21.8031 10.5449C20.0735 9.86815 18.1428 9.01726 18.1428 6.82964C18.1428 4.64203 20.0987 3.03009 22.5632 3.03009C24.6504 3.03009 26.0754 4.17864 26.5979 5.57433L25.402 6.38311C25.1481 5.84057 24.7433 5.38352 24.2366 5.06709C23.7299 4.75066 23.1428 4.58839 22.5464 4.59988C21.0347 4.59988 19.7522 5.60241 19.7522 6.86612C19.7522 8.23373 21.3002 8.73641 23.1052 9.43847C25.2176 10.2978 27.2182 11.2807 27.2182 13.5554C27.2182 15.9957 24.9829 17.5852 22.267 17.5852C19.9422 17.5852 18.1456 16.3608 17.4722 14.8612Z" fill="#2A0C3E"/>
<path d="M34.5584 11.379L29.5903 3.23511H31.3702L35.3547 9.59015L39.3364 3.23511H41.1275L36.1399 11.379V17.3914H34.5584V11.379Z" fill="#2A0C3E"/>
<path d="M56.5821 3.20421V17.6104H56.5039L46.85 6.83805V16.7174L45.2629 17.4083V3.02167H45.3496L54.9922 13.7828V3.89502L56.5821 3.20421Z" fill="#2A0C3E"/>
<path d="M72.9588 10.323C72.9588 14.6421 70.1647 17.3914 65.7778 17.3914H61.866V3.24068H65.7778C70.1619 3.23226 72.9588 5.98713 72.9588 10.323ZM71.3606 10.323C71.3606 6.97844 69.1755 4.81891 65.7722 4.81891H63.4503V15.7991H65.7974C69.1839 15.7991 71.3606 13.6508 71.3606 10.323V10.323Z" fill="#2A0C3E"/>
<path d="M77.2756 3.94278L78.8655 3.24072V17.3914H77.2756V3.94278Z" fill="#2A0C3E"/>
<path d="M83.5262 10.3231C83.5217 8.88306 83.9428 7.4741 84.7359 6.27475C85.529 5.0754 86.6585 4.13965 87.9813 3.58611C89.3041 3.03258 90.7606 2.88615 92.1663 3.16539C93.572 3.44463 94.8635 4.13697 95.8773 5.15468C96.8911 6.17238 97.5815 7.46964 97.861 8.88207C98.1404 10.2945 97.9964 11.7585 97.4472 13.0886C96.898 14.4187 95.9682 15.555 94.7758 16.3535C93.5834 17.152 92.182 17.5768 90.7491 17.574C88.8383 17.563 87.0087 16.7957 85.6568 15.4386C84.3048 14.0814 83.5394 12.2435 83.5262 10.3231V10.3231ZM96.3794 10.3231C96.3821 9.20386 96.0545 8.10891 95.438 7.17676C94.8216 6.24461 93.9439 5.51712 92.916 5.08635C91.8881 4.65559 90.7562 4.54087 89.6634 4.75672C88.5706 4.97256 87.5661 5.50927 86.7768 6.29895C85.9876 7.08863 85.4491 8.09583 85.2294 9.19313C85.0098 10.2904 85.1189 11.4285 85.5429 12.4635C85.9669 13.4985 86.6868 14.3839 87.6115 15.0076C88.5362 15.6313 89.6242 15.9655 90.7379 15.9677C92.2333 15.9685 93.6681 15.3743 94.7289 14.315C95.7896 13.2558 96.3901 11.8175 96.3989 10.3147L96.3794 10.3231Z" fill="#2A0C3E"/>
<path d="M11.2967 16.0182L0.00268555 21V14.9511L11.2995 9.96643L11.2967 16.0182Z" fill="#35C0C8"/>
<path d="M11.294 6.04895L0 11.0336V4.98462L11.294 0V6.04895Z" fill="#35C0C8"/>
<g style="mix-blend-mode:multiply">
<g style="mix-blend-mode:multiply">
<path d="M11.3053 9.96924L4.45117 12.9937L11.3053 16.0182V9.96924Z" fill="#35C0C8"/>
</g>
<g style="mix-blend-mode:multiply">
<path d="M0.0112305 4.98462V11.0336L6.86534 8.00909L0.0112305 4.98462Z" fill="#35C0C8"/>
</g>
</g>
</svg>
